<svg width="693" height="142" viewBox="0 0 693 142" fill="none" xmlns="http://www.w3.org/2000/svg">
<path d="M31.4444 70.5051L15.7154 86.4301L0 70.5051L15.7154 54.5802L31.4444 70.5051ZM69.5774 31.8361L96.5085 59.14L112.224 43.215L69.5774 0L26.931 43.215L42.6464 59.14L69.5774 31.8361ZM123.453 54.5802L107.738 70.5051L123.453 86.4301L139.155 70.5051L123.453 54.5802ZM69.5774 109.174L42.6464 81.884L26.931 97.7952L69.5774 141.01L112.224 97.7952L96.5085 81.884L69.5774 109.174ZM69.5774 86.4301L85.2929 70.5051L69.5774 54.5802L53.862 70.5051L69.5774 86.4301ZM235.432 87.9592V87.7388C235.432 77.3518 229.994 72.1582 221.144 68.7418C226.582 65.6422 231.177 60.7793 231.177 52.0592V51.8388C231.177 39.6884 221.579 31.8361 205.986 31.8361H170.586V109.174H206.883C224.108 109.174 235.459 102.107 235.459 87.9592H235.432ZM214.496 54.897C214.496 60.6416 209.806 63.0799 202.397 63.0799H186.94V46.7555H203.512C210.595 46.7555 214.524 49.6208 214.524 54.7042L214.496 54.897ZM218.752 85.8377C218.752 91.5823 214.279 94.2272 206.856 94.2272H186.94V77.2415H206.34C214.959 77.2415 218.779 80.4513 218.779 85.6449L218.752 85.8377ZM270.71 109.174V31.8361H253.867V109.174H270.71ZM360.965 109.174V31.8361H344.339V79.4595L308.585 31.8361H293.101V109.174H309.673V60.0079L346.623 109.174H360.965ZM453.966 109.174L421.203 31.2851H405.719L373.024 109.174H390.139L397.141 91.8303H429.414L436.388 109.174H453.966ZM423.446 76.8007H403.109L413.25 51.7286L423.446 76.8007ZM533.998 109.174V31.8361H517.372V79.4595L481.604 31.8361H466.133V109.174H482.692V60.0079L519.656 109.174H533.998ZM620.664 96.6932L609.992 85.7551C603.997 91.2654 598.654 94.8058 589.926 94.8058C576.848 94.8058 567.794 83.7851 567.794 70.5051V70.2847C567.794 57.0323 577.066 46.2044 589.926 46.2044C597.553 46.2044 603.521 49.5106 609.448 54.9246L620.093 42.4436C613.01 35.3766 604.405 30.5136 590.008 30.5136C566.571 30.5136 550.216 48.5188 550.216 70.4638V70.6842C550.216 92.891 566.897 110.455 589.355 110.455C604.051 110.497 612.765 105.193 620.61 96.6932H620.664ZM692.308 109.174V94.0206H650.817V77.7513H686.802V62.5978H650.817V46.9759H691.71V31.8224H634.136V109.16L692.308 109.174Z" fill="#F0B90B"/>
</svg>
