<svg width="1021" height="333" viewBox="0 0 1021 333" fill="none" xmlns="http://www.w3.org/2000/svg">
<path d="M189.857 62.0509C175.198 48.4573 155.131 41.7404 129.513 41.7404H65.7525V51.8157H128.374C150.149 51.8157 169.79 56.7734 181.887 68.6078C193.984 80.4423 202.951 97.7142 202.951 119.144C202.951 139.934 194.981 155.127 182.599 166.802C170.217 178.476 147.73 183.594 125.385 183.594H53.5129V193.669H125.955C152.853 193.669 173.917 187.112 189.145 173.998C204.231 160.885 211.917 142.333 211.917 118.504C211.917 94.1959 204.516 75.4846 189.857 62.0509Z" fill="white"/>
<path d="M184.449 76.4442C175.34 68.6079 164.951 62.3708 135.348 62.3708H86.1046V72.1262C86.1046 72.1262 108.164 71.8064 134.209 72.1262C159.4 72.4461 168.651 75.6446 177.19 82.6813C188.007 91.6371 194.838 102.832 194.838 118.345C194.838 133.378 188.007 143.933 177.048 153.048C165.947 162.324 148.868 162.324 141.895 162.644C139.333 162.644 105.318 162.644 105.318 162.644V172.399C105.318 172.399 122.112 172.719 132.644 172.399C156.554 171.76 170.786 170.16 184.022 159.125C196.404 148.73 202.951 135.137 202.951 117.865C202.951 95.1554 192.703 83.8007 184.449 76.4442Z" fill="white"/>
<path d="M180.037 89.3981C173.205 84.6003 167.228 81.4018 138.906 81.4018H103.468V87.7989H137.91C162.958 87.7989 172.351 92.7565 175.34 94.8356C181.033 98.6738 188.434 105.071 188.434 117.865C188.434 126.021 184.164 136.416 177.76 140.414C171.925 144.093 161.25 147.451 142.606 147.451H27.0411V153.848H142.891C165.52 153.848 173.205 150.969 181.175 146.012C189.145 141.054 194.554 130.819 194.554 117.865C194.554 103.152 187.295 94.5157 180.037 89.3981Z" fill="white"/>
<path d="M202.524 160.245C187.865 146.651 167.797 139.934 142.179 139.934H99.4828V150.01H140.898C162.674 150.01 182.314 155.127 194.411 166.802C206.509 178.476 215.617 195.908 215.617 217.338C215.617 238.128 207.79 253.321 195.265 264.996C182.741 276.67 160.396 281.788 138.052 281.788H66.1796V291.863H138.621C165.52 291.863 186.584 285.306 201.812 272.193C217.041 259.079 224.584 240.527 224.584 216.698C224.441 192.55 217.183 173.839 202.524 160.245Z" fill="white"/>
<path d="M197.115 174.638C188.007 166.962 177.617 160.565 148.015 160.565H81.1234V170.32C81.1234 170.32 120.831 170 146.876 170.32C172.067 170.64 181.318 173.839 189.857 180.875C200.674 189.831 207.505 201.026 207.505 216.539C207.505 231.572 200.674 242.127 189.715 251.242C178.614 260.518 161.535 260.518 154.561 260.838C152 260.838 117.985 260.838 117.985 260.838V270.593C117.985 270.593 134.921 270.913 145.31 270.593C169.22 269.954 183.453 268.354 196.689 257.319C209.071 246.924 215.617 233.331 215.617 216.059C215.617 193.509 205.512 181.995 197.115 174.638Z" fill="white"/>
<path d="M95.3555 207.903H158.119V202.465H95.3555V207.903Z" fill="white"/>
<path d="M121.258 226.934H157.692V222.296H121.258V226.934Z" fill="white"/>
<path d="M66.1796 207.903H84.6814V202.465H66.1796V207.903Z" fill="white"/>
<path d="M54.5092 227.254H111.011V221.816H54.5092V227.254Z" fill="white"/>
<path d="M68.4567 87.3191H90.5166V82.8412H68.4567V87.3191Z" fill="white"/>
<path d="M53.2283 123.782H103.468V118.664H53.2283V123.782Z" fill="white"/>
<path d="M54.5092 269.954H107.595V263.557H54.5092V269.954Z" fill="white"/>
<path d="M41.4156 291.224H54.6515V281.788H41.4156V291.224Z" fill="white"/>
<path d="M74.4342 107.789H157.835V102.672H74.4342V107.789Z" fill="white"/>
<path d="M116.134 123.782H156.269V118.664H116.134V123.782Z" fill="white"/>
<path d="M192.703 188.552C185.872 183.914 179.895 180.715 151.573 180.715H106.599V186.952H150.719C175.767 186.952 185.303 191.75 188.149 193.669C193.7 197.348 201.243 203.425 201.243 215.899C201.243 223.895 196.973 233.81 190.569 237.649C184.733 241.167 174.059 244.365 155.415 244.365H39.7077V250.603H155.558C178.187 250.603 185.872 247.884 193.842 243.086C201.812 238.288 207.078 228.533 207.078 215.899C207.22 201.985 199.962 193.669 192.703 188.552Z" fill="white"/>
<path d="M311.4 174.638V231.731H339.152C351.107 231.731 360.501 229.173 367.048 224.055C373.452 219.417 377.152 211.421 377.01 202.785C377.01 184.074 362.92 174.638 334.883 174.638H311.4V174.638ZM311.4 106.67V157.846H332.321C343.564 157.846 352.246 155.447 358.651 150.489C364.913 146.012 368.613 138.015 368.328 129.699C368.328 114.346 357.227 106.51 334.883 106.51L311.4 106.67ZM290.905 248.524V89.8779H340.576C355.662 89.8779 367.617 93.2363 376.441 99.9532C385.265 106.67 389.677 115.466 389.677 126.181C389.819 134.817 386.973 143.293 381.707 149.69C376.298 156.407 369.04 161.045 359.647 163.923V164.403C371.459 165.682 380.853 169.68 387.826 176.557C394.8 183.114 398.643 192.87 398.358 203.105C398.358 216.698 392.95 227.573 382.276 236.049C371.602 244.525 358.081 248.683 341.714 248.683H290.905V248.524Z" fill="white"/>
<path d="M421.13 248.524H441.055V135.297H421.13V248.524ZM431.235 106.35C427.961 106.51 424.688 105.231 422.126 102.992C419.707 101.073 418.283 97.8741 418.426 94.6756C418.426 91.3172 419.849 88.1187 422.126 86.1996C424.688 83.9606 427.961 82.6812 431.235 82.8412C434.65 82.6812 437.924 83.9606 440.485 86.1996C444.613 89.558 445.467 95.955 442.62 100.593C442.051 101.552 441.339 102.352 440.485 102.992C437.924 105.391 434.65 106.51 431.235 106.35Z" fill="white"/>
<path d="M529.152 247.404C524.455 249.803 518.193 250.922 510.508 250.922C488.733 250.922 477.774 239.888 477.774 217.658V150.649H456.426V135.137H477.774V107.47L497.699 101.552V135.137H529.01V150.649H497.699V214.46C497.699 221.976 499.122 227.413 501.968 230.772C504.815 234.13 509.512 235.57 516.058 235.57C520.613 235.73 525.167 234.45 529.01 231.731L529.152 247.404Z" fill="white"/>
<path d="M710.327 248.524H691.683V150.649C691.825 141.214 692.252 131.618 693.249 122.183H692.822C691.683 126.98 689.975 131.778 687.983 136.256L633.189 248.364H623.938L569.287 137.056C567.152 132.258 565.586 127.3 564.448 122.023H564.021C564.732 131.458 565.017 141.054 564.875 150.649V248.364H546.8V102.512H571.706L620.949 204.224C623.796 209.822 626.358 215.739 628.35 221.816H629.062C632.335 213.82 634.897 207.903 636.747 203.904L686.987 102.512H710.47V248.524" fill="white"/>
<path d="M811.66 191.11L781.63 194.949C772.38 196.068 765.406 198.147 760.709 201.186C756.013 204.224 753.593 209.502 753.593 217.018C753.593 222.456 756.013 227.573 760.14 230.612C764.41 234.13 770.245 235.889 777.503 235.889C787.466 235.889 795.578 232.691 801.982 226.454C808.245 220.537 811.803 211.741 811.66 202.465V191.11ZM831.585 248.524H811.66V230.772H811.233C802.552 244.366 789.743 251.082 772.949 251.082C760.567 251.082 750.889 248.044 743.773 242.127C736.941 236.689 733.099 227.733 733.241 218.298C733.241 197.188 746.904 184.873 774.372 181.355L811.66 176.557C811.66 157.366 803.121 147.771 786.042 147.771C771.526 147.611 757.436 152.409 745.481 161.684V143.133C757.72 136.096 771.81 132.578 787.75 132.578C817.069 132.578 831.585 146.651 831.585 174.798V248.524Z" fill="white"/>
<path d="M924.094 153.528C920.536 151.129 915.555 149.85 909.008 149.85C900.754 149.69 892.926 153.688 887.66 160.885C881.967 168.241 879.121 178.157 879.121 190.791V248.524H859.196V135.297H879.121V158.646H879.548C882.11 151.129 886.664 144.572 892.641 139.934C898.334 135.457 905.166 133.218 912.282 133.218C916.267 133.058 920.394 133.537 924.237 134.817L924.094 153.528Z" fill="white"/>
<path d="M993.547 247.404C988.851 249.803 982.589 250.922 974.903 250.922C953.128 250.922 942.169 239.888 942.169 217.658V150.649H920.821V135.137H942.169V107.47L962.094 101.552V135.137H993.405V150.649H962.094V214.46C962.094 221.976 963.518 227.413 966.364 230.772C969.21 234.13 973.907 235.57 980.454 235.57C985.008 235.73 989.562 234.45 993.405 231.731L993.547 247.404Z" fill="white"/>
</svg>
