<?xml version="1.0" encoding="utf-8"?>
<!-- Generator: Adobe Illustrator 25.4.1, SVG Export Plug-In . SVG Version: 6.00 Build 0)  -->
<svg version="1.0" id="layer" xmlns="http://www.w3.org/2000/svg" xmlns:xlink="http://www.w3.org/1999/xlink" x="0px" y="0px"
	 viewBox="0 0 599.93 200" enable-background="new 0 0 599.93 200" xml:space="preserve">
<g>
	<path fill="#49CC68" d="M248.53,64.5h-12c-0.8,0-1.4,0.6-1.4,1.4v47.8c-3.4,4.6-9.9,9.1-17.3,9.1c-8.5,0-13.8-3.5-13.8-14.4V65.8
		c0-0.8-0.6-1.4-1.4-1.4h-12c-0.8,0-1.4,0.6-1.4,1.4V114c0,14.2,7.3,22.2,21.9,22.2c10.7,0,19.1-5.5,23.9-11v7.9
		c0,0.8,0.6,1.4,1.5,1.5h12c0.8,0,1.4-0.6,1.4-1.4V65.9C249.93,65.1,249.33,64.5,248.53,64.5z"/>
	<path fill="#49CC68" d="M386.23,62.6c-10.7,0-19.4,5.7-23.9,11.2V39.1c0-0.8-0.6-1.4-1.4-1.4h-12c-0.8,0-1.4,0.6-1.4,1.4v94
		c0,0.8,0.6,1.4,1.4,1.4h12c0.8,0,1.4-0.6,1.4-1.4V85.5c3.4-4.7,9.8-9.3,17.4-9.3c8.3,0,13.6,3.2,13.6,14.2v42.7
		c0,0.8,0.6,1.4,1.4,1.4l12-0.1c0.8,0,1.4-0.6,1.4-1.4V84.8C408.13,70.4,400.83,62.6,386.23,62.6z"/>
	<path fill="#49CC68" d="M133.53,48.8v-0.1c-9.2-29.2-35.2-48.7-65-48.7c-29.9,0-56,19.7-65.1,48.9c-6.1,18.3-4,43,5.8,65.9
		c13.3,31.3,37.5,53,58.9,53c0.1,0,0.2,0,0.3,0s0.2,0,0.3,0c21.4,0,45.6-21.7,58.9-53c9.7-22.9,11.9-47.5,5.8-65.9
		C133.43,48.8,133.43,48.8,133.53,48.8z M68.43,11.1c12.4,0,24,4,33.6,11.1c-10.8-0.5-22.6,4.3-33.6,13.9
		c-11-9.5-22.8-14.3-33.6-13.9C44.33,15.1,56.03,11.1,68.43,11.1z M34.53,136.1c-6-7.1-11.4-15.9-15.6-25.8
		c-8.7-20.5-10.8-42.2-5.5-58c2.8-8.3,7.5-14.3,13.6-17.2c9.5-4.5,21.8-1.3,33.5,8.5c-7.5,8.4-14,18.8-18.9,30.3
		C32.23,95.9,30.13,118.6,34.53,136.1z M77.23,154.8c-2.7,1.3-5.7,2-8.8,2c-3.1,0-6.1-0.7-8.8-2c-18.3-8.7-22-43.7-8.1-76.3
		c4.4-10.4,10.2-19.6,16.9-27.2c6.7,7.5,12.5,16.8,16.9,27.2C99.23,111.1,95.53,146,77.23,154.8z M117.83,110.3
		c-4.2,9.8-9.6,18.6-15.6,25.9c4.3-17.5,2.2-40.2-7.1-62.2c-4.9-11.5-11.4-21.8-18.9-30.3c11.8-9.8,24.1-13.1,33.5-8.5
		c6.1,2.9,10.8,8.8,13.6,17.2C128.53,68.2,126.53,89.8,117.83,110.3z"/>
	<path fill="#49CC68" d="M304.03,62.7c-8.9,0-16.7,4.3-21.8,11.3v-8.2c0-0.8-0.6-1.4-1.4-1.4h-12c-0.8,0-1.4,0.6-1.4,1.4v94
		c0,0.8,0.6,1.4,1.4,1.4h12c0.8,0,1.4-0.6,1.4-1.4v-35c5.6,7.4,13.2,11.4,21.8,11.5c17.6,0,30.1-13.8,30.1-36.9
		C334.13,76.3,321.63,62.7,304.03,62.7z M299.63,122.8c-6.9,0-14.2-4.4-17.4-9.6V85.5c3.4-5.2,10.5-9.3,17.4-9.3
		c11.6,0,19.2,9.5,19.2,23.2C318.83,113,311.23,122.8,299.63,122.8z"/>
	<path fill="#49CC68" d="M598.53,37.7h-12c-0.8,0-1.4,0.6-1.4,1.4v35c-5.4-7.6-13.2-11.5-21.8-11.5c-17.5,0-30.1,14.1-30.1,36.7
		c0,23.3,12.8,36.9,30.1,36.9c8.9,0,16.6-4.3,21.8-11.3v8.2c0,0.8,0.7,1.4,1.4,1.4h12c0.8,0,1.4-0.6,1.4-1.4v-94
		C599.93,38.3,599.33,37.7,598.53,37.7z M585.13,113.3c-3.2,5.2-10.5,9.4-17.4,9.4c-11.8,0-19.2-9.7-19.2-23.4
		c0-13.5,7.4-23.2,19.2-23.2c6.9,0,14.2,4.2,17.4,9.4V113.3z"/>
	<path fill="#49CC68" d="M518.33,37.7h-12c-0.8,0-1.4,0.6-1.4,1.4v94c0,0.8,0.7,1.4,1.4,1.4h12c0.8,0,1.4-0.6,1.4-1.4v-94
		C519.73,38.3,519.13,37.7,518.33,37.7z"/>
	<path fill="#49CC68" d="M86.43,184c-6,1.8-11.8,2.7-17.5,2.7h-0.8c-5.7,0-11.6-1-17.6-2.8c-3.4-1-7,1-8,4.5c-1,3.6,0.9,7.3,4.3,8.3
		c7.1,2.2,14.3,3.3,21.3,3.3h0.8c7,0,14.1-1.1,21.2-3.3c3.4-1,5.3-4.7,4.3-8.2S89.83,183,86.43,184z"/>
	<path fill="#49CC68" d="M456.43,62.7c-21.6,0-34.8,16.5-34.8,36.7c0,20,13.3,36.8,34.8,36.9c21.6,0,34.8-16.9,34.8-36.9
		C491.23,79.2,478.03,62.7,456.43,62.7z M456.53,122.8c-12.5,0-19.5-10.9-19.5-23.4c0-12.3,7-23.2,19.5-23.2
		c12.6,0,19.5,10.8,19.5,23.2C476.03,111.9,469.13,122.8,456.53,122.8z"/>
</g>
</svg>
