<svg width="1317" height="461" viewBox="0 0 1317 461" fill="none" xmlns="http://www.w3.org/2000/svg">
<path d="M121.524 0.0102136C117.288 -0.232203 114.485 3.92107 114.485 3.92107C114.485 3.92107 68.7808 65.0802 41.8736 101.938C14.9636 138.796 5.24478 164.459 5.24478 164.459C-13.678 217.526 24.6881 252.262 24.6881 252.262C64.6178 288.927 108.018 288.733 108.018 288.733C107.324 255.156 108.537 235.281 108.537 235.281C111.489 199.581 145.686 164.268 145.686 164.268C134.047 165.266 110.806 165.21 97.9827 152.319C85.1611 139.429 93.2687 108.828 93.2687 108.828L126.458 11.0474C126.458 11.0474 130.607 4.33845 124.667 0.985074C123.553 0.356202 122.499 0.0665231 121.522 0.0102136H121.524ZM1195.2 0.0102136C1194.22 0.0369375 1193.17 0.356469 1192.05 0.985074C1186.1 4.33845 1190.25 11.0474 1190.25 11.0474L1223.51 108.828C1223.51 108.828 1231.63 139.429 1218.79 152.319C1205.94 165.21 1182.65 165.266 1170.99 164.268C1170.99 164.268 1205.25 199.581 1208.21 235.281C1208.21 235.281 1209.43 255.156 1208.73 288.733C1208.73 288.733 1252.22 288.927 1292.23 252.262C1292.23 252.262 1330.67 217.526 1311.71 164.459C1311.71 164.459 1301.97 138.796 1275.01 101.938C1248.05 65.0802 1202.25 3.92107 1202.25 3.92107C1202.25 3.92107 1199.44 -0.231555 1195.2 0.0102136H1195.2ZM239.147 157.471C239.147 157.471 145.769 157.078 133.789 248.73V368.976C133.789 368.976 135.2 454.36 243.727 460.627C243.727 460.627 300.808 467.285 342.035 406.576L295.525 372.501C295.525 372.501 273.326 404.225 244.785 402.267C216.245 400.309 189.113 388.558 189.113 356.05V329.417H335.34C335.34 329.417 345.559 331.766 345.559 311.399V251.472C345.559 251.472 346.97 161.387 239.147 157.471V157.471ZM1068.78 158.284C1068.78 158.284 975.101 160.249 961.844 251.604V369.973C961.844 369.973 965.38 447.574 1067.01 457.888C1067.01 457.888 1168.64 464.767 1181.45 367.027V242.766C1181.45 242.766 1172.17 162.213 1068.78 158.284V158.284ZM687.241 159.067C687.241 159.067 593.566 161.033 580.311 252.387V370.753C580.311 370.753 583.846 448.357 685.474 458.672C685.474 458.672 787.102 465.547 799.917 367.807V243.546C799.917 243.546 790.636 162.996 687.241 159.067ZM940.758 160.005C844.307 161.359 832.898 246.015 832.898 246.015V456.756H887.391V255.396C887.391 255.396 897.037 222.955 931.146 220.61C931.146 220.61 945.918 174.095 972.994 162.369C963.132 160.872 953.954 160.12 945.416 160.005C943.843 159.998 942.29 159.998 940.758 160.005V160.005ZM477.479 163.57C473.773 163.555 470.031 163.578 466.267 163.724C406.031 165.98 382.681 171.249 347.487 182.91C347.487 182.91 370.159 206.983 371.174 234.819C371.174 234.819 411.444 222.407 436.487 223.535V456.755H491.308V225.039C491.308 225.039 532.933 224.289 554.93 235.197C554.93 235.197 552.561 211.875 580.65 182.91C580.65 182.91 533.062 164.065 477.479 163.569V163.57ZM245.425 216.973C270.133 217.211 291.307 234.61 291.647 254.214V278.891H189.113V249.905C189.113 249.905 201.111 218.495 243.024 217.006C243.827 216.994 244.629 216.987 245.425 216.991V216.973ZM1069.66 218.698C1114.73 218.207 1125.78 239.325 1125.78 254.059V355.73C1125.78 355.73 1119.59 396.004 1073.2 395.022C1026.8 394.04 1017.08 368.007 1017.08 347.87V257.496C1017.08 257.496 1024.59 219.189 1069.66 218.698V218.698ZM688.126 219.478C733.196 218.987 744.242 240.108 744.242 254.843V356.51C744.242 356.51 738.054 396.784 691.659 395.802C645.264 394.82 635.544 368.791 635.544 348.653V258.279C635.544 258.279 643.057 219.969 688.126 219.478V219.478Z" fill="#5C9F04"/>
</svg>
