<svg width="683" height="108" viewBox="0 0 683 108" fill="none" xmlns="http://www.w3.org/2000/svg">
<path d="M63.1288 0.144768C74.8528 -0.625017 86.8022 1.68431 97.286 6.85287C112.843 14.3308 125.243 27.7471 130.992 43.5827C133.585 50.6207 134.938 57.9886 134.938 65.4665V93.0689C134.938 94.1685 134.938 95.3782 134.712 96.4779C134.036 99.2271 132.007 101.756 129.301 102.966C127.385 103.846 125.243 103.956 123.327 103.626C119.043 102.856 115.661 98.8972 115.661 94.6084C115.661 86.0308 115.661 77.4532 115.661 68.8756C115.774 66.4563 115.774 63.817 114.421 61.7276C112.279 57.7687 106.868 55.8992 102.697 57.5487C99.0897 58.7584 96.4969 62.3874 96.3842 66.1264C96.3842 74.8139 96.3842 83.5015 96.3842 92.1891C96.3842 93.8386 96.4969 95.4882 95.9333 97.0277C95.0314 100.107 92.4386 102.526 89.2822 103.406C85.1112 104.506 80.3765 102.746 78.3474 99.0072C76.8819 96.8078 76.9946 94.0586 77.1074 91.5293C77.1074 82.8417 77.1074 74.2641 77.1074 65.5765C76.9946 61.1777 73.2745 57.2188 68.8781 56.669C65.9471 56.2291 62.9034 57.2188 60.7615 59.1983C58.8451 60.9578 57.8305 63.4871 57.8305 66.0164V91.1994C57.8305 93.2888 58.056 95.4882 57.2669 97.4676C56.0268 101.097 52.3068 103.736 48.3612 103.626C44.3029 103.846 40.3574 101.097 39.1173 97.4676C38.441 95.5981 38.5537 93.7287 38.5537 91.7492C38.5537 83.0616 38.5537 74.374 38.5537 65.6865C38.5537 61.3977 35.059 57.4388 30.7753 56.669C26.8298 55.8992 22.546 57.7687 20.5169 61.2877C19.7278 62.7173 19.2768 64.3669 19.2768 66.0164V94.2785C19.2768 97.0277 18.0368 99.777 15.8949 101.536C12.6258 104.286 7.32745 104.506 3.94555 101.976C1.46549 100.327 0 97.4676 0 94.4984V65.9064C0 55.1294 2.81825 44.3524 8.11657 34.7851C12.4003 26.9773 18.375 20.0492 25.477 14.5507C35.9609 5.97312 49.3758 0.914554 63.1288 0.144768Z" fill="#5741D9"/>
<path d="M332.687 38.1994H318.032C318.596 28.1921 320.738 19.1747 330.094 13.4563C339.451 7.84782 349.709 6.52819 360.419 7.40794C366.168 7.84782 371.917 9.0575 377.215 11.4768C386.572 15.6557 391.194 22.8037 391.194 32.8109C391.194 50.5159 391.194 68.221 391.194 85.9261C391.194 92.4143 392.547 93.6239 399.198 92.9641C399.874 92.8541 400.663 92.7441 401.34 92.6342C401.452 92.9641 401.452 93.294 401.452 93.514V104.291C396.154 106.05 390.743 106.6 385.445 105.171C381.499 104.071 379.019 101.322 377.666 97.6928C376.99 95.8233 376.539 93.8439 375.975 91.7544C375.412 92.4143 374.961 92.9641 374.397 93.514C362.786 104.951 349.033 109.789 332.8 105.721C321.301 102.861 313.41 92.6342 313.072 80.9775C312.959 77.2385 313.298 73.4995 314.199 69.8705C316.341 61.5129 322.429 56.4543 330.094 53.0452C335.505 50.6259 341.367 49.9661 347.229 49.1963C354.106 48.3165 360.87 47.5468 367.746 46.557C372.368 45.8972 374.735 43.4779 375.412 38.9692C376.877 29.8417 372.706 23.7934 363.688 21.594C358.277 20.2744 352.753 20.0544 347.229 21.0442C339.113 22.4738 334.604 26.9825 333.025 34.7903C333.138 35.89 332.913 36.9897 332.687 38.1994ZM375.863 55.7944C369.099 59.3135 362.561 60.1932 355.909 61.183C350.386 62.0627 344.749 62.8325 339.338 64.4821C332.236 66.7914 328.967 72.5098 329.643 80.2077C330.207 86.5859 334.604 91.7544 341.706 92.8541C352.64 94.6136 362.335 91.6445 370.001 83.7267C372.255 81.4173 374.059 78.1182 374.51 75.0391C375.525 68.8808 375.412 62.6125 375.863 55.7944ZM584.752 74.2693C584.413 75.8089 584.188 77.1285 583.85 78.3382C577.537 97.1429 564.686 105.171 549.129 106.93C522.186 109.789 506.742 92.6342 502.797 74.3793C499.64 59.8633 500.091 45.4573 506.63 31.8211C512.83 18.9547 522.75 10.4871 537.518 7.95779C555.216 4.87865 580.242 13.4563 584.413 40.3987C585.541 47.3268 585.766 54.4748 586.442 61.7328H517.903C518.466 71.6301 520.044 80.8675 527.485 88.0155C530.528 90.9847 534.474 92.4142 538.758 93.184C552.623 95.6033 564.122 89.1152 568.631 76.0288C569.082 74.5992 569.758 74.1593 571.224 74.2693C575.62 74.2693 580.017 74.2693 584.752 74.2693ZM518.466 48.9764H569.758C569.195 43.148 568.18 37.7595 565.362 32.7009C562.656 27.8622 558.711 24.3432 553.3 22.5837C535.601 16.6454 517.339 30.3916 518.466 48.9764ZM621.614 103.741H606.058V9.38741H620.825V22.5837C621.952 21.3741 622.629 20.6043 623.305 19.8345C633.902 8.06778 647.204 4.98862 662.31 8.61761C672.794 11.1469 678.656 18.4049 680.685 28.5221C681.474 32.7009 682.038 36.9897 682.038 41.1685C682.15 61.4029 682.15 81.6373 682.15 101.872C682.15 102.421 682.038 102.971 682.038 103.631H666.143V101.102C666.143 82.1871 666.255 63.2724 666.03 44.3576C666.03 40.1788 665.354 35.89 664.113 31.8211C662.084 25.223 656.673 21.704 649.571 21.3741C636.607 20.9342 626.349 27.6423 623.192 38.8592C622.065 42.928 621.727 47.2168 621.727 51.5057C621.614 68.111 621.614 84.6064 621.614 100.992V103.741ZM416.558 9.38741H431.551V49.4162C432.453 48.5365 433.017 48.0966 433.581 47.5467C445.868 35.3402 458.156 23.0236 470.443 10.817C471.458 9.71731 472.472 9.27744 474.051 9.27744C479.8 9.3874 485.662 9.27744 491.975 9.27744C491.073 10.1572 490.622 10.707 490.058 11.2569C479.236 21.8139 468.527 32.481 457.592 42.9281C456.352 44.1377 456.352 44.9075 457.141 46.2271C468.978 64.592 480.702 82.9569 492.426 101.322C492.877 101.982 493.215 102.641 493.778 103.631C492.989 103.741 492.426 103.741 491.749 103.741C486.338 103.741 481.04 103.741 475.629 103.741C474.163 103.741 473.487 103.191 472.698 102.092C463.679 87.3557 454.661 72.6198 445.643 57.7739C445.192 57.1141 444.854 56.4543 444.29 55.6845C440.119 59.7534 436.061 63.6023 432.002 67.6712C431.439 68.221 431.326 69.2107 431.326 69.9805C431.326 80.3176 431.326 90.6547 431.326 100.992V103.631C428.395 103.631 425.464 103.631 422.646 103.631C420.617 103.631 417.798 104.181 416.671 103.081C415.656 102.202 416.22 99.3423 416.22 97.3629V11.9167C416.558 11.3668 416.558 10.4871 416.558 9.38741ZM243.518 9.27744C231.343 21.0442 219.506 32.5909 207.557 44.1377C220.408 64.1521 232.921 83.7267 245.659 103.741C244.645 103.741 243.969 103.851 243.292 103.851C238.107 103.851 232.808 103.851 227.623 103.851C226.157 103.851 225.255 103.301 224.466 102.092C215.448 87.3557 206.429 72.6198 197.411 57.7739C197.073 57.1141 196.622 56.5643 196.058 55.6845C193.804 57.9939 191.775 60.5232 189.294 62.2827C184.222 66.0216 182.756 70.6403 183.094 76.7986C183.658 84.8264 183.207 92.9641 183.207 100.992V103.631H168.327V9.38741H183.207V48.7564C183.545 48.9764 183.883 49.1963 184.109 49.4162C184.56 48.7564 184.785 47.9867 185.236 47.4368C197.411 35.2302 209.699 23.1336 221.873 10.817C223.001 9.71731 224.015 9.16747 225.706 9.27744C230.779 9.3874 235.852 9.27744 240.925 9.27744C241.714 9.27744 242.39 9.27744 243.518 9.27744ZM273.278 25.003C280.831 14.226 288.835 5.20858 303.715 7.84785V24.0133C299.77 24.2333 295.824 24.1233 292.104 24.8931C282.973 26.7626 275.871 34.9003 274.406 44.7975C274.18 46.777 273.955 48.7564 273.955 50.7359C273.955 67.5612 273.955 84.3865 273.955 101.212V103.851H258.623V9.60733H273.278C273.278 14.5559 273.278 19.5046 273.278 25.003Z" fill="#5741D9"/>
</svg>
