<svg width="1063" height="156" viewBox="0 0 1063 156" fill="none" xmlns="http://www.w3.org/2000/svg">
<path d="M4 49.1818V30.9091H82.6818V49.1818H54.4545V124H32.2727V49.1818H4ZM80.8705 124V30.9091H145.78V49.1818H103.37V68.2727H142.461V86.5909H103.37V105.727H145.78V124H80.8705ZM231.57 64.6364H208.843C208.54 62.303 207.919 60.197 206.98 58.3182C206.04 56.4394 204.798 54.8333 203.252 53.5C201.707 52.1667 199.873 51.1515 197.752 50.4545C195.661 49.7273 193.343 49.3636 190.798 49.3636C186.283 49.3636 182.389 50.4697 179.116 52.6818C175.873 54.8939 173.373 58.0909 171.616 62.2727C169.889 66.4545 169.025 71.5151 169.025 77.4545C169.025 83.6364 169.904 88.8182 171.661 93C173.449 97.1515 175.949 100.288 179.161 102.409C182.404 104.5 186.237 105.545 190.661 105.545C193.146 105.545 195.404 105.227 197.434 104.591C199.495 103.955 201.298 103.03 202.843 101.818C204.419 100.576 205.707 99.0758 206.707 97.3182C207.737 95.5303 208.449 93.5152 208.843 91.2727L231.57 91.4091C231.177 95.5303 229.98 99.5909 227.98 103.591C226.01 107.591 223.298 111.242 219.843 114.545C216.389 117.818 212.177 120.424 207.207 122.364C202.267 124.303 196.601 125.273 190.207 125.273C181.783 125.273 174.237 123.424 167.57 119.727C160.934 116 155.692 110.576 151.843 103.455C147.995 96.3333 146.07 87.6667 146.07 77.4545C146.07 67.2121 148.025 58.5303 151.934 51.4091C155.843 44.2879 161.131 38.8788 167.798 35.1818C174.464 31.4848 181.934 29.6364 190.207 29.6364C195.843 29.6364 201.055 30.4242 205.843 32C210.631 33.5455 214.843 35.8182 218.48 38.8182C222.116 41.7879 225.07 45.4394 227.343 49.7727C229.616 54.1061 231.025 59.0606 231.57 64.6364ZM218.845 124V30.9091H241.345V68.2727H278.027V30.9091H300.482V124H278.027V86.5909H241.345V124H218.845Z" fill="white"/>
<path fill-rule="evenodd" clip-rule="evenodd" d="M405.182 59H393.909C393.242 55.7576 392.076 52.9091 390.409 50.4545C388.773 48 386.773 45.9394 384.409 44.2727C382.076 42.5757 379.485 41.303 376.636 40.4545C373.788 39.6061 370.818 39.1818 367.727 39.1818C362.091 39.1818 356.985 40.6061 352.409 43.4545C347.864 46.303 344.242 50.5 341.545 56.0454C338.879 61.5909 337.545 68.3939 337.545 76.4545C337.545 84.5151 338.879 91.3182 341.545 96.8636C344.242 102.409 347.864 106.606 352.409 109.455C356.985 112.303 362.091 113.727 367.727 113.727C370.818 113.727 373.788 113.303 376.636 112.455C379.485 111.606 382.076 110.348 384.409 108.682C386.773 106.985 388.773 104.909 390.409 102.455C392.076 99.9697 393.242 97.1212 393.909 93.9091H405.182C404.333 98.6667 402.788 102.924 400.545 106.682C398.303 110.439 395.515 113.636 392.182 116.273C388.848 118.879 385.106 120.864 380.955 122.227C376.833 123.591 372.424 124.273 367.727 124.273C359.788 124.273 352.727 122.333 346.545 118.455C340.364 114.576 335.5 109.061 331.955 101.909C328.409 94.7576 326.636 86.2727 326.636 76.4545C326.636 66.6364 328.409 58.1515 331.955 51C335.5 43.8485 340.364 38.3333 346.545 34.4545C352.727 30.5757 359.788 28.6364 367.727 28.6364C372.424 28.6364 376.833 29.3182 380.955 30.6818C385.106 32.0454 388.848 34.0454 392.182 36.6818C395.515 39.2879 398.303 42.4697 400.545 46.2273C402.788 49.9545 404.333 54.2121 405.182 59ZM495.398 123H484.414L474.886 96.6364L471.271 86.6364L455.5 43L439.728 86.6364L436.114 96.6364L426.586 123H415.398L449.58 29.9091H461.216L495.398 123ZM509.898 29.9091H541.352C548.655 29.9091 554.625 31.2273 559.261 33.8636C563.928 36.4697 567.383 40 569.625 44.4545C571.867 48.9091 572.989 53.8788 572.989 59.3636C572.989 64.8485 571.867 69.8333 569.625 74.3182C567.413 78.803 563.989 82.3788 559.352 85.0454C554.716 87.6818 548.777 89 541.534 89H521.17V123H509.898V29.9091ZM541.17 79H521.17V39.9091H540.989C546.049 39.9091 550.11 40.7576 553.17 42.4545C556.231 44.1212 558.443 46.4242 559.807 49.3636C561.201 52.303 561.898 55.6364 561.898 59.3636C561.898 63.0909 561.201 66.4394 559.807 69.4091C558.443 72.3485 556.246 74.6818 553.216 76.4091C550.186 78.1364 546.17 79 541.17 79ZM602.42 123H591.148V29.9091H602.42V123ZM619.932 39.9091V29.9091H689.75V39.9091H660.477V123H649.205V39.9091H619.932ZM699.812 123H688.273L722.455 29.9091H734.091L768.273 123H756.455L750.305 105.678L728 40L699.812 123ZM782.773 29.9091H794.045V113H837.318V123H782.773V29.9091Z" fill="white"/>
</svg>
